<?xml version="1.0" standalone="no"?>
<!DOCTYPE svg PUBLIC "-//W3C//DTD SVG 20010904//EN"
 "http://www.w3.org/TR/2001/REC-SVG-20010904/DTD/svg10.dtd">
<svg version="1.0" xmlns="http://www.w3.org/2000/svg"
 width="512.000000pt" height="512.000000pt" viewBox="0 0 512.000000 512.000000"
 preserveAspectRatio="xMidYMid meet">

<g transform="translate(0.000000,512.000000) scale(0.100000,-0.100000)"
fill="#000000" stroke="none">
<path d="M3965 5101 c-27 -13 -328 -307 -958 -938 l-919 -920 -74 18 c-198 47
-492 51 -689 9 -561 -119 -1010 -498 -1216 -1029 -109 -279 -136 -617 -74
-917 126 -613 586 -1103 1185 -1263 220 -59 490 -71 712 -32 570 100 1040 487
1256 1032 36 90 65 194 89 314 34 174 20 510 -27 674 -9 34 -8 36 73 120 45
47 89 100 96 118 11 27 10 66 -7 250 -11 120 -19 220 -17 222 2 2 90 -4 194
-14 105 -9 206 -14 224 -11 37 7 80 47 96 88 7 19 5 83 -8 225 -10 109 -17
200 -15 202 2 2 91 -4 199 -14 107 -9 206 -14 219 -11 39 10 85 55 96 94 8 28
6 87 -8 230 -10 106 -17 194 -15 195 1 2 89 -5 195 -15 287 -28 268 -32 400
98 61 60 119 127 129 149 17 37 19 71 19 476 0 508 -1 514 -80 591 -80 77 -85
78 -594 78 -410 0 -444 -2 -481 -19z m934 -165 c50 -26 51 -36 51 -479 l0
-412 -82 -82 -83 -82 -236 21 c-236 21 -237 21 -275 1 -23 -12 -46 -34 -58
-58 -20 -38 -20 -40 -2 -238 9 -109 15 -202 11 -205 -3 -3 -95 2 -205 12
l-199 18 -39 -22 c-77 -43 -82 -75 -57 -330 8 -80 15 -152 15 -160 0 -14 -21
-14 -202 2 -199 18 -202 18 -243 -2 -81 -39 -86 -73 -56 -385 l17 -180 -98
-101 c-73 -75 -98 -108 -98 -127 0 -14 11 -72 25 -129 66 -272 54 -542 -35
-809 -77 -231 -184 -404 -359 -580 -211 -211 -455 -343 -751 -406 -121 -26
-459 -26 -579 0 -284 61 -527 188 -728 380 -227 217 -368 472 -434 787 -29
139 -32 398 -6 540 24 130 88 316 147 428 143 272 374 499 650 637 314 157
688 197 1030 108 52 -13 104 -22 115 -19 11 3 443 429 960 946 l940 940 418 0
c342 0 423 -3 446 -14z"/>
<path d="M3961 4504 c-24 -20 -31 -34 -31 -63 0 -41 29 -77 65 -82 94 -14 141
103 62 152 -42 25 -60 24 -96 -7z"/>
<path d="M3068 3633 c-670 -669 -688 -689 -688 -726 0 -49 35 -87 82 -87 30 0
90 57 721 688 675 675 689 690 689 728 0 47 -37 84 -85 84 -29 0 -98 -66 -719
-687z"/>
<path d="M1086 1699 c-59 -14 -155 -65 -208 -109 -187 -160 -225 -452 -87
-659 93 -140 245 -221 414 -221 281 0 505 225 505 507 0 215 -154 414 -369
477 -59 17 -191 20 -255 5z m238 -180 c73 -27 148 -96 183 -167 23 -49 27 -70
27 -142 0 -74 -4 -93 -29 -143 -33 -68 -97 -130 -163 -160 -72 -33 -198 -31
-274 5 -66 31 -128 91 -160 156 -19 39 -23 63 -23 142 0 80 4 103 24 144 40
81 121 149 211 177 50 15 148 9 204 -12z"/>
</g>
</svg>
